<svg xmlns="http://www.w3.org/2000/svg" width="1200" height="650" viewBox="0 0 1200 650" role="img" aria-labelledby="title desc">
  <title id="title">Security Observatory case-study orchestration</title><desc id="desc">Human authority governs private product, public website and private governance evidence domains. AI roles contribute within bounded paths and evidence returns for adjudication before release.</desc>
  <rect width="1200" height="650" rx="28" fill="#f2f6fa"/><g font-family="Arial, Helvetica, sans-serif" text-anchor="middle"><rect x="290" y="30" width="620" height="105" rx="20" fill="#183b62"/><text x="600" y="78" fill="#fff" font-size="32" font-weight="700">Human authority and adjudication</text><text x="600" y="112" fill="#dbe8f4" font-size="21">Luca Pacini</text><path d="M600 135V205M200 490V565M600 490V565M1000 490V565" stroke="#39729f" stroke-width="7"/><rect x="80" y="205" width="300" height="145" rx="18" fill="#fff" stroke="#39729f" stroke-width="4"/><rect x="450" y="205" width="300" height="145" rx="18" fill="#fff" stroke="#39729f" stroke-width="4"/><rect x="820" y="205" width="300" height="145" rx="18" fill="#fff" stroke="#39729f" stroke-width="4"/><text x="230" y="255" fill="#0c2442" font-size="27" font-weight="700">ChatGPT/GPT</text><text x="230" y="294" fill="#40526a" font-size="20">Orchestration and</text><text x="230" y="322" fill="#40526a" font-size="20">primary-source research</text><text x="600" y="255" fill="#0c2442" font-size="27" font-weight="700">Codex</text><text x="600" y="294" fill="#40526a" font-size="20">Bounded implementation</text><text x="600" y="322" fill="#40526a" font-size="20">against named baselines</text><text x="970" y="255" fill="#0c2442" font-size="27" font-weight="700">Claude</text><text x="970" y="294" fill="#40526a" font-size="20">Role-separated challenge</text><text x="970" y="322" fill="#40526a" font-size="20">of source and surfaces</text><rect x="45" y="420" width="310" height="150" rx="18" fill="#fff4ef" stroke="#d94b31" stroke-width="4"/><rect x="445" y="420" width="310" height="150" rx="18" fill="#fff4ef" stroke="#d94b31" stroke-width="4"/><rect x="845" y="420" width="310" height="150" rx="18" fill="#fff4ef" stroke="#d94b31" stroke-width="4"/><text x="200" y="475" fill="#0c2442" font-size="26" font-weight="700">Private product</text><text x="200" y="511" fill="#40526a" font-size="20">repository evidence</text><text x="600" y="475" fill="#0c2442" font-size="26" font-weight="700">Public website</text><text x="600" y="511" fill="#40526a" font-size="20">source and live evidence</text><text x="1000" y="475" fill="#0c2442" font-size="26" font-weight="700">Private governance</text><text x="1000" y="511" fill="#40526a" font-size="20">requirements and decisions</text><text x="600" y="622" fill="#a33f2b" font-size="23" font-weight="700">Evidence returns to human adjudication before release</text></g>
</svg>
